<mxfile host="app.diagrams.net" agent="Mozilla/5.0 (Macintosh; Intel Mac OS X 10.15; rv:134.0) Gecko/20100101 Firefox/134.0" version="26.0.11">
  <diagram name="Page-1" id="clmuGVqMmQe1iZCzhsXo">
    <mxGraphModel dx="1118" dy="796" grid="1" gridSize="10" guides="1" tooltips="1" connect="1" arrows="1" fold="1" page="1" pageScale="1" pageWidth="1169" pageHeight="827" math="0" shadow="0">
      <root>
        <mxCell id="0" />
        <mxCell id="1" parent="0" />
        <mxCell id="FuBu3UHdjpIpV9gdBcZj-6" value="" style="edgeStyle=orthogonalEdgeStyle;rounded=0;orthogonalLoop=1;jettySize=auto;html=1;" edge="1" parent="1" source="FuBu3UHdjpIpV9gdBcZj-2" target="FuBu3UHdjpIpV9gdBcZj-5">
          <mxGeometry relative="1" as="geometry" />
        </mxCell>
        <mxCell id="FuBu3UHdjpIpV9gdBcZj-2" value="Movement" style="strokeWidth=2;html=1;shape=mxgraph.flowchart.start_1;whiteSpace=wrap;" vertex="1" parent="1">
          <mxGeometry x="535" y="40" width="145" height="80" as="geometry" />
        </mxCell>
        <mxCell id="FuBu3UHdjpIpV9gdBcZj-8" value="" style="edgeStyle=orthogonalEdgeStyle;rounded=0;orthogonalLoop=1;jettySize=auto;html=1;" edge="1" parent="1" source="FuBu3UHdjpIpV9gdBcZj-5" target="FuBu3UHdjpIpV9gdBcZj-7">
          <mxGeometry relative="1" as="geometry" />
        </mxCell>
        <mxCell id="FuBu3UHdjpIpV9gdBcZj-5" value="key pressed = keyboard input" style="shape=parallelogram;perimeter=parallelogramPerimeter;whiteSpace=wrap;html=1;fixedSize=1;strokeWidth=2;" vertex="1" parent="1">
          <mxGeometry x="547.5" y="210" width="120" height="60" as="geometry" />
        </mxCell>
        <mxCell id="FuBu3UHdjpIpV9gdBcZj-10" value="" style="edgeStyle=orthogonalEdgeStyle;rounded=0;orthogonalLoop=1;jettySize=auto;html=1;" edge="1" parent="1" source="FuBu3UHdjpIpV9gdBcZj-7" target="FuBu3UHdjpIpV9gdBcZj-9">
          <mxGeometry relative="1" as="geometry" />
        </mxCell>
        <mxCell id="FuBu3UHdjpIpV9gdBcZj-7" value="if key pressed = d" style="rhombus;whiteSpace=wrap;html=1;strokeWidth=2;" vertex="1" parent="1">
          <mxGeometry x="537.5" y="340" width="140" height="80" as="geometry" />
        </mxCell>
        <mxCell id="FuBu3UHdjpIpV9gdBcZj-12" value="" style="edgeStyle=orthogonalEdgeStyle;rounded=0;orthogonalLoop=1;jettySize=auto;html=1;" edge="1" parent="1" source="FuBu3UHdjpIpV9gdBcZj-9" target="FuBu3UHdjpIpV9gdBcZj-11">
          <mxGeometry relative="1" as="geometry" />
        </mxCell>
        <mxCell id="FuBu3UHdjpIpV9gdBcZj-9" value="moving_right = True" style="rounded=1;whiteSpace=wrap;html=1;strokeWidth=2;" vertex="1" parent="1">
          <mxGeometry x="547.5" y="510" width="120" height="60" as="geometry" />
        </mxCell>
        <mxCell id="FuBu3UHdjpIpV9gdBcZj-11" value="dx = self.speed" style="whiteSpace=wrap;html=1;rounded=1;strokeWidth=2;" vertex="1" parent="1">
          <mxGeometry x="547.5" y="650" width="120" height="60" as="geometry" />
        </mxCell>
      </root>
    </mxGraphModel>
  </diagram>
</mxfile>
